<?xml version="1.0" encoding="utf-8"?>
<svg xmlns="http://www.w3.org/2000/svg" xmlns:svg="http://www.w3.org/2000/svg" version="1.1" viewBox="0 0 1400 440">
	<title>The titlepage for the Standard Ebooks edition of The Legend of Sleepy Hollow, by Washington Irving</title>
	<g aria-label="THE LEGEND">
		<path d="m 382.1959,68.245613 h 18.33918 V 130 h 17.59065 V 68.245613 h 18.33918 V 52.807016 H 382.1959 Z"/>
		<path d="m 465.39035,99.029239 h 24.88889 V 130 h 17.59064 V 52.807016 H 490.27924 V 83.590642 H 465.39035 V 52.807016 H 447.7997 V 130 h 17.59065 z"/>
		<path d="M 568.23538,52.807016 H 524.07164 V 130 h 44.16374 v -15.4386 h -26.5731 V 99.029239 h 25.45029 V 83.590642 H 541.66228 V 68.245613 h 26.5731 z"/>
		<path d="M 631.5234,52.807016 H 613.93275 V 130 h 44.16375 v -15.4386 h -26.5731 z"/>
		<path d="M 715.91081,52.807016 H 671.74707 V 130 h 44.16374 v -15.4386 h -26.5731 V 99.029239 H 714.788 V 83.590642 H 689.33771 V 68.245613 h 26.5731 z"/>
		<path d="m 800.82457,86.771929 h -35.64912 v 13.567251 h 17.77778 c 0,9.45029 -8.32749,14.87719 -16.74854,14.87719 -10.8538,0 -19.64912,-10.66666 -19.64912,-23.766078 0,-13.380117 8.79532,-24.140352 19.64912,-24.140352 6.83041,0 12.72515,2.713451 17.21638,9.918129 L 794.92984,64.59649 C 788.193,56.456139 778.7427,51.403507 765.17545,51.403507 c -21.7076,0 -37.61403,17.871346 -37.61403,40.046785 0,22.081868 16.8421,39.953218 37.61403,39.953218 15.1579,0 31.4386,-8.32749 35.64912,-27.88304 z"/>
		<path d="M 857.67253,52.807016 H 813.50879 V 130 h 44.16374 v -15.4386 h -26.5731 V 99.029239 h 25.45029 V 83.590642 H 831.09943 V 68.245613 h 26.5731 z"/>
		<path d="m 890.37574,82.093566 h 0.18713 L 921.25293,130 h 17.59064 V 52.807016 h -17.59064 v 47.906434 h -0.18714 L 890.37574,52.807016 H 872.78509 V 130 h 17.59065 z"/>
		<path d="M 955.0877,52.807016 V 130 h 22.36258 c 21.23976,0 38.92402,-16.09357 38.92402,-38.643276 0,-22.45614 -17.77782,-38.549708 -38.92402,-38.549708 z M 972.67835,114.2807 V 68.526315 h 2.71345 c 13.09941,0 21.9883,10.011696 21.9883,22.923977 -0.0936,12.912278 -8.98245,22.830408 -21.9883,22.830408 z"/>
	</g>
	<g aria-label="OF SLEEPY HOLLOW">
		<path d="m 177.44444,191.35672 c 0,22.54971 16.09356,40.04679 38.92397,40.04679 22.17544,0 38.83041,-17.49708 38.83041,-40.04679 0,-22.5497 -17.40351,-39.95321 -38.83041,-39.95321 -21.23976,0 -38.92397,17.40351 -38.92397,39.95321 z m 18.99415,0 c 0,-11.50877 6.36257,-23.01754 19.92982,-23.01754 13.66082,0 19.83626,11.50877 19.83626,23.01754 0,11.50878 -5.80117,23.01755 -19.83626,23.01755 -14.40935,0 -19.92982,-11.50877 -19.92982,-23.01755 z"/>
		<path d="M 312.5921,152.80702 H 267.96052 V 230 h 17.59064 v -30.97076 h 24.98246 v -15.4386 h -24.98246 v -15.34503 h 27.04094 z"/>
		<path d="m 383.15936,151.40351 c -12.44445,0 -25.16959,9.16959 -25.16959,23.57895 0,8.04678 5.4269,15.25146 14.69005,19.83625 9.16959,4.5848 17.40351,7.11111 17.40351,12.72515 0,7.20468 -7.29824,7.57895 -11.1345,7.57895 -8.60819,0 -18.90059,-8.70176 -18.90059,-8.70176 l -8.79532,14.78363 c 0,0 10.94737,10.19883 29.00585,10.19883 15.06433,0 29.09942,-6.45614 29.09942,-24.88889 0,-10.10526 -9.4503,-17.40351 -18.05848,-21.05263 -8.79532,-3.74269 -16.09357,-6.83041 -16.09357,-11.13451 0,-4.21052 3.18129,-6.92397 9.16959,-6.92397 7.95322,0 15.62573,5.33333 15.62573,5.33333 l 7.11111,-14.03509 c 0,0 -9.91813,-7.29824 -23.95321,-7.29824 z"/>
		<path d="M 440.17105,152.80702 H 422.5804 V 230 h 44.16375 v -15.4386 h -26.5731 z"/>
		<path d="M 524.55848,152.80702 H 480.39474 V 230 h 44.16374 v -15.4386 h -26.5731 v -15.53216 h 25.45029 v -15.4386 h -25.45029 v -15.34503 h 26.5731 z"/>
		<path d="M 583.83479,152.80702 H 539.67104 V 230 h 44.16375 v -15.4386 h -26.5731 v -15.53216 h 25.45029 v -15.4386 h -25.45029 v -15.34503 h 26.5731 z"/>
		<path d="M 598.94738,152.80702 V 230 h 17.59064 v -28.63158 h 10.5731 c 15.06433,0 26.38597,-8.88889 26.38597,-24.79532 0,-16 -11.32164,-23.76608 -26.38597,-23.76608 z m 17.59064,34.52631 V 166.8421 h 4.95907 c 6.92397,0 13.47368,2.33919 13.47368,10.2924 0,7.85965 -6.54971,10.19883 -13.47368,10.19883 z"/>
		<path d="m 649.43712,152.80702 28.44445,42.5731 V 230 h 17.59064 v -34.61988 l 28.44445,-42.5731 h -21.1462 l -16.09357,24.70175 -16.09357,-24.70175 z"/>
		<path d="M 779.92981,199.02924 H 804.8187 V 230 h 17.59064 V 152.80702 H 804.8187 v 30.78362 H 779.92981 V 152.80702 H 762.33916 V 230 h 17.59065 z"/>
		<path d="m 835.14915,191.35672 c 0,22.54971 16.09357,40.04679 38.92398,40.04679 22.17543,0 38.83041,-17.49708 38.83041,-40.04679 0,-22.5497 -17.40351,-39.95321 -38.83041,-39.95321 -21.23977,0 -38.92398,17.40351 -38.92398,39.95321 z m 18.99415,0 c 0,-11.50877 6.36257,-23.01754 19.92983,-23.01754 13.66081,0 19.83625,11.50877 19.83625,23.01754 0,11.50878 -5.80117,23.01755 -19.83625,23.01755 -14.40936,0 -19.92983,-11.50877 -19.92983,-23.01755 z"/>
		<path d="M 943.25586,152.80702 H 925.66521 V 230 h 44.16375 v -15.4386 h -26.5731 z"/>
		<path d="M 1001.0702,152.80702 H 983.47954 V 230 h 44.16376 v -15.4386 h -26.5731 z"/>
		<path d="m 1037.8319,191.35672 c 0,22.54971 16.0936,40.04679 38.924,40.04679 22.1754,0 38.8304,-17.49708 38.8304,-40.04679 0,-22.5497 -17.4035,-39.95321 -38.8304,-39.95321 -21.2398,0 -38.924,17.40351 -38.924,39.95321 z m 18.9941,0 c 0,-11.50877 6.3626,-23.01754 19.9299,-23.01754 13.6608,0 19.8362,11.50877 19.8362,23.01754 0,11.50878 -5.8011,23.01755 -19.8362,23.01755 -14.4094,0 -19.9299,-11.50877 -19.9299,-23.01755 z"/>
		<path d="m 1184.6521,230 h 19.462 l 21.9883,-77.19298 h -19.462 l -13.193,52.95906 h -0.4678 l -14.0351,-52.95906 h -13.2866 l -14.0351,52.95906 h -0.4678 l -13.193,-52.95906 h -19.5555 L 1140.3948,230 h 19.5555 l 12.3509,-43.32164 z"/>
	</g>
	<g aria-label="WASHINGTON IRVING">
		<path d="m 306.76755,390 h 14.59649 l 16.49123,-57.89474 h -14.59649 l -9.89474,39.7193 h -0.35088 l -10.52631,-39.7193 h -9.96492 l -10.52631,39.7193 h -0.35088 L 271.75,332.10526 H 257.08334 L 273.57457,390 h 14.66666 l 9.26316,-32.49123 z"/>
		<path d="M 368.98136,332.10526 H 356.77084 L 333.40242,390 h 14.17544 l 4.2807,-11.57895 h 22.03509 L 378.17435,390 h 14.17544 z m 0.42106,34.73685 H 356.34979 L 362.80593,350 h 0.14035 z"/>
		<path d="m 419.5022,331.05263 c -9.33333,0 -18.87719,6.8772 -18.87719,17.68421 0,6.03509 4.07017,11.4386 11.01754,14.8772 6.87719,3.43859 13.05263,5.33333 13.05263,9.54385 0,5.40351 -5.47368,5.68422 -8.35087,5.68422 -6.45614,0 -14.17544,-6.52632 -14.17544,-6.52632 l -6.59649,11.08772 c 0,0 8.21052,7.64912 21.75438,7.64912 11.29825,0 21.82456,-4.8421 21.82456,-18.66666 0,-7.57895 -7.08772,-13.05264 -13.54386,-15.78948 -6.59649,-2.80702 -12.07017,-5.12281 -12.07017,-8.35088 0,-3.15789 2.38596,-5.19298 6.87719,-5.19298 5.96491,0 11.7193,4 11.7193,4 l 5.33333,-10.52631 c 0,0 -7.43859,-5.47369 -17.96491,-5.47369 z"/>
		<path d="m 463.51097,366.77193 h 18.66667 V 390 h 13.19298 v -57.89474 h -13.19298 v 23.08772 H 463.51097 V 332.10526 H 450.31799 V 390 h 13.19298 z"/>
		<path d="M 521.96492,332.10526 H 508.77194 V 390 h 13.19298 z"/>
		<path d="m 548.62062,354.07018 h 0.14035 L 571.77852,390 h 13.19298 v -57.89474 h -13.19298 v 35.92983 h -0.14035 L 548.62062,332.10526 H 535.42764 V 390 h 13.19298 z"/>
		<path d="m 650.75548,357.57895 h -26.73684 v 10.17544 h 13.33333 c 0,7.08772 -6.24562,11.15789 -12.5614,11.15789 -8.14036,0 -14.73685,-8 -14.73685,-17.82456 0,-10.03509 6.59649,-18.10526 14.73685,-18.10526 5.1228,0 9.54385,2.03508 12.91228,7.43859 l 8.63157,-9.47368 c -5.05263,-6.10526 -12.14035,-9.89474 -22.31578,-9.89474 -16.28071,0 -28.21053,13.40351 -28.21053,30.03509 0,16.5614 12.63158,29.96491 28.21053,29.96491 11.36842,0 23.57894,-6.24561 26.73684,-20.91228 z"/>
		<path d="m 654.44298,343.68421 h 13.75438 V 390 h 13.19299 v -46.31579 h 13.75438 v -11.57895 h -40.70175 z"/>
		<path d="m 700.10636,361.01754 c 0,16.91228 12.07017,30.03509 29.19298,30.03509 16.63158,0 29.12281,-13.12281 29.12281,-30.03509 0,-16.91228 -13.05263,-29.96491 -29.12281,-29.96491 -15.92982,0 -29.19298,13.05263 -29.19298,29.96491 z m 14.24561,0 c 0,-8.63157 4.77193,-17.26315 14.94737,-17.26315 10.24561,0 14.87719,8.63158 14.87719,17.26315 0,8.63158 -4.35087,17.26316 -14.87719,17.26316 -10.80702,0 -14.94737,-8.63158 -14.94737,-17.26316 z"/>
		<path d="m 782.43639,354.07018 h 0.14035 L 805.59428,390 h 13.19299 v -57.89474 h -13.19299 v 35.92983 h -0.14035 L 782.43639,332.10526 H 769.24341 V 390 h 13.19298 z"/>
		<path d="M 869.60198,332.10526 H 856.409 V 390 h 13.19298 z"/>
		<path d="M 883.0647,332.10526 V 390 h 13.19298 V 367.12281 L 913.94189,390 h 16.77193 l -19.92983,-23.92982 c 7.08772,-2.24562 11.85965,-8.07018 11.85965,-16.77193 0,-11.36842 -8.14035,-17.19299 -18.87719,-17.19299 z m 13.19298,25.68421 v -15.15789 h 1.54386 c 4.98245,0 10.94737,0.35088 10.94737,7.57895 0,7.22807 -5.96492,7.57894 -10.94737,7.57894 z"/>
		<path d="m 956.47147,390 h 10.38597 l 24.2807,-57.89474 h -14.87719 l -14.5965,38.03509 -14.59649,-38.03509 h -14.87719 z"/>
		<path d="M 1011.5209,332.10526 H 998.32788 V 390 h 13.19302 z"/>
		<path d="m 1038.1766,354.07018 h 0.1403 L 1061.3345,390 h 13.1929 v -57.89474 h -13.1929 v 35.92983 h -0.1404 l -23.0175,-35.92983 h -13.193 V 390 h 13.193 z"/>
		<path d="m 1140.3114,357.57895 h -26.7369 v 10.17544 h 13.3334 c 0,7.08772 -6.2456,11.15789 -12.5614,11.15789 -8.1404,0 -14.7369,-8 -14.7369,-17.82456 0,-10.03509 6.5965,-18.10526 14.7369,-18.10526 5.1228,0 9.5438,2.03508 12.9123,7.43859 l 8.6315,-9.47368 c -5.0526,-6.10526 -12.1403,-9.89474 -22.3158,-9.89474 -16.2807,0 -28.2105,13.40351 -28.2105,30.03509 0,16.5614 12.6316,29.96491 28.2105,29.96491 11.3685,0 23.579,-6.24561 26.7369,-20.91228 z"/>
	</g>
</svg>
